# xmcd
#
# Track frame offsets:
#	150
#	19793
#	37992
#	58617
#	82328
#	101419
#	118754
#	143203
#	159671
#	178064
#	194259
#	215646
#	234032
#	252320
#
# Disc length: 3607 seconds
#
# Revision: 0
# Processed by: cddbd v1.5.1PL0 Copyright (c) Steve Scherf et al.
# Submitted via: dBpowerAMP V4.0
#
DISCID=c10e150e
DTITLE=Joss Stone - Mind, Body and Soul
DYEAR=2004
DGENRE=Soul
TTITLE0=Right To Be Wrong
TTITLE1=Jet Lag
TTITLE2=You Had Me
TTITLE3=Spoiled
TTITLE4=Don't Cha Wanna Ride
TTITLE5=Less Is More
TTITLE6=Security
TTITLE7=Young At Heart
TTITLE8=Snakes And Ladders
TTITLE9=Understand
TTITLE10=Don't Know How
TTITLE11=Torn And Tattered
TTITLE12=Killing Time
TTITLE13=Sleep Like A Child
EXTD=Mind, Body and Soul
EXTT0=
EXTT1=
EXTT2=
EXTT3=
EXTT4=
EXTT5=
EXTT6=
EXTT7=
EXTT8=
EXTT9=
EXTT10=
EXTT11=
EXTT12=
EXTT13=
PLAYORDER=
